<svg xmlns="http://www.w3.org/2000/svg" version="1.1" height="304" width="2304" viewBox="0 0 2304 304" class="diagram" text-anchor="middle" font-family="monospace" font-size="13px">
<circle cx="1040" cy="128" r="6" class="opendot" fill="white" stroke="black"/>
<circle cx="1048" cy="128" r="6" class="opendot" fill="white" stroke="black"/>
<circle cx="1048" cy="256" r="6" class="opendot" fill="white" stroke="black"/>
<circle cx="1056" cy="112" r="6" class="opendot" fill="white" stroke="black"/>
<circle cx="1056" cy="272" r="6" class="opendot" fill="white" stroke="black"/>
<circle cx="1064" cy="112" r="6" class="opendot" fill="white" stroke="black"/>
<circle cx="1064" cy="272" r="6" class="opendot" fill="white" stroke="black"/>
<circle cx="1072" cy="112" r="6" class="opendot" fill="white" stroke="black"/>
<circle cx="1072" cy="176" r="6" class="opendot" fill="white" stroke="black"/>
<circle cx="1072" cy="192" r="6" class="opendot" fill="white" stroke="black"/>
<circle cx="1072" cy="208" r="6" class="opendot" fill="white" stroke="black"/>
<circle cx="1072" cy="224" r="6" class="opendot" fill="white" stroke="black"/>
<circle cx="1072" cy="288" r="6" class="opendot" fill="white" stroke="black"/>
<circle cx="1080" cy="112" r="6" class="opendot" fill="white" stroke="black"/>
<circle cx="1080" cy="288" r="6" class="opendot" fill="white" stroke="black"/>
<circle cx="1088" cy="112" r="6" class="opendot" fill="white" stroke="black"/>
<circle cx="1088" cy="288" r="6" class="opendot" fill="white" stroke="black"/>
<circle cx="1096" cy="112" r="6" class="opendot" fill="white" stroke="black"/>
<circle cx="1096" cy="288" r="6" class="opendot" fill="white" stroke="black"/>
<circle cx="1104" cy="112" r="6" class="opendot" fill="white" stroke="black"/>
<circle cx="1104" cy="160" r="6" class="opendot" fill="white" stroke="black"/>
<circle cx="1104" cy="288" r="6" class="opendot" fill="white" stroke="black"/>
<circle cx="1112" cy="112" r="6" class="opendot" fill="white" stroke="black"/>
<circle cx="1112" cy="160" r="6" class="opendot" fill="white" stroke="black"/>
<circle cx="1112" cy="288" r="6" class="opendot" fill="white" stroke="black"/>
<circle cx="1120" cy="176" r="6" class="opendot" fill="white" stroke="black"/>
<circle cx="1120" cy="192" r="6" class="opendot" fill="white" stroke="black"/>
<circle cx="1120" cy="208" r="6" class="opendot" fill="white" stroke="black"/>
<circle cx="1120" cy="224" r="6" class="opendot" fill="white" stroke="black"/>
<circle cx="1120" cy="240" r="6" class="opendot" fill="white" stroke="black"/>
<circle cx="1120" cy="288" r="6" class="opendot" fill="white" stroke="black"/>
<circle cx="1128" cy="112" r="6" class="opendot" fill="white" stroke="black"/>
<circle cx="1128" cy="240" r="6" class="opendot" fill="white" stroke="black"/>
<circle cx="1128" cy="288" r="6" class="opendot" fill="white" stroke="black"/>
<circle cx="1136" cy="112" r="6" class="opendot" fill="white" stroke="black"/>
<circle cx="1144" cy="128" r="6" class="opendot" fill="white" stroke="black"/>
<circle cx="1144" cy="288" r="6" class="opendot" fill="white" stroke="black"/>
<circle cx="1152" cy="128" r="6" class="opendot" fill="white" stroke="black"/>
<circle cx="1152" cy="288" r="6" class="opendot" fill="white" stroke="black"/>
<circle cx="1160" cy="176" r="6" class="opendot" fill="white" stroke="black"/>
<circle cx="1160" cy="192" r="6" class="opendot" fill="white" stroke="black"/>
<circle cx="1160" cy="208" r="6" class="opendot" fill="white" stroke="black"/>
<circle cx="1160" cy="272" r="6" class="opendot" fill="white" stroke="black"/>
<circle cx="1168" cy="272" r="6" class="opendot" fill="white" stroke="black"/>
<g class="text">
<text x="72" y="52">BBBBBBBBBBBBBBBBB</text>
<text x="660" y="52">iiii</text>
<text x="968" y="52">OOOOOOOOO</text>
<text x="1404" y="52">tttt</text>
<text x="1520" y="52">hhhhhhh</text>
<text x="1828" y="52">iiii</text>
<text x="76" y="68">B::::::::::::::::B</text>
<text x="660" y="68">i::::i</text>
<text x="968" y="68">OO:::::::::OO</text>
<text x="1392" y="68">ttt:::t</text>
<text x="1520" y="68">h:::::h</text>
<text x="1828" y="68">i::::i</text>
<text x="80" y="84">B::::::BBBBBB:::::B</text>
<text x="660" y="84">iiii</text>
<text x="968" y="84">OO:::::::::::::OO</text>
<text x="1392" y="84">t:::::t</text>
<text x="1520" y="84">h:::::h</text>
<text x="1828" y="84">iiii</text>
<text x="36" y="100">BB:::::B</text>
<text x="136" y="100">B:::::B</text>
<text x="968" y="100">O:::::::OOO:::::::O</text>
<text x="1392" y="100">t:::::t</text>
<text x="1520" y="100">h:::::h</text>
<text x="28" y="116">B::::B</text>
<text x="120" y="116">B:::::B</text>
<text x="228" y="116">eeeeeeeeeeee</text>
<text x="328" y="116">rrrrr</text>
<text x="408" y="116">rrrrrrrrr</text>
<text x="484" y="116">nnnn</text>
<text x="548" y="116">nnnnnnnn</text>
<text x="640" y="116">iiiiiii</text>
<text x="756" y="116">eeeeeeeeeeee</text>
<text x="908" y="116">O::::::O</text>
<text x="996" y="116">O::::::O</text>
<text x="1120" y="116">o</text>
<text x="1236" y="116">ssssssssss</text>
<text x="1376" y="116">ttttttt:::::ttttttt</text>
<text x="1532" y="116">h::::h hhhhh</text>
<text x="1660" y="116">uuuuuu</text>
<text x="1740" y="116">uuuuuu</text>
<text x="1880" y="116">iiiiiii zzzzzzzzzzzzzzzzz</text>
<text x="2060" y="116">eeeeeeeeeeee</text>
<text x="2156" y="116">nnnn</text>
<text x="2220" y="116">nnnnnnnn</text>
<text x="28" y="132">B::::B</text>
<text x="120" y="132">B:::::B</text>
<text x="228" y="132">ee::::::::::::ee</text>
<text x="380" y="132">r::::rrr:::::::::r</text>
<text x="532" y="132">n:::nn::::::::nn</text>
<text x="640" y="132">i:::::i</text>
<text x="756" y="132">ee::::::::::::ee</text>
<text x="904" y="132">O:::::O</text>
<text x="1000" y="132">O:::::O</text>
<text x="1096" y="132">:::::::::::</text>
<text x="1232" y="132">ss::::::::::s</text>
<text x="1376" y="132">t:::::::::::::::::t</text>
<text x="1544" y="132">h::::hh:::::hhh</text>
<text x="1660" y="132">u::::u</text>
<text x="1740" y="132">u::::u</text>
<text x="1880" y="132">i:::::i z:::::::::::::::z</text>
<text x="2060" y="132">ee::::::::::::ee</text>
<text x="2204" y="132">n:::nn::::::::nn</text>
<text x="72" y="148">B::::BBBBBB:::::B</text>
<text x="380" y="148">e::::::eeeee:::::eer:::::::::::::::::r n::::::::::::::nn</text>
<text x="644" y="148">i::::i</text>
<text x="760" y="148">e::::::eeeee:::::ee</text>
<text x="904" y="148">O:::::O</text>
<text x="1212" y="148">O:::::Oo:::::::::::::::oss:::::::::::::s t:::::::::::::::::t</text>
<text x="1552" y="148">h::::::::::::::hh</text>
<text x="1660" y="148">u::::u</text>
<text x="1740" y="148">u::::u</text>
<text x="1880" y="148">i::::i z::::::::::::::z</text>
<text x="2132" y="148">e::::::eeeee:::::een::::::::::::::nn</text>
<text x="68" y="164">B:::::::::::::BB</text>
<text x="180" y="164">e::::::e</text>
<text x="496" y="164">e:::::err::::::rrrrr::::::rnn:::::::::::::::n i::::i e::::::e</text>
<text x="808" y="164">e:::::e</text>
<text x="904" y="164">O:::::O</text>
<text x="1036" y="164">O:::::Oo:::::ooo</text>
<text x="1284" y="164">:::::os::::::ssss:::::stttttt:::::::tttttt</text>
<text x="1584" y="164">h:::::::hhh::::::h u::::u</text>
<text x="1740" y="164">u::::u</text>
<text x="1876" y="164">i::::i zzzzzzzz::::::z</text>
<text x="2012" y="164">e::::::e</text>
<text x="2184" y="164">e:::::enn:::::::::::::::n</text>
<text x="188" y="180">B::::BBBBBB:::::B e:::::::eeeee::::::e r:::::r</text>
<text x="440" y="180">r:::::r</text>
<text x="660" y="180">n:::::nnnn:::::n i::::i e:::::::eeeee::::::e</text>
<text x="904" y="180">O:::::O</text>
<text x="1020" y="180">O:::::Oo::::</text>
<text x="1140" y="180">::::</text>
<text x="1200" y="180">s:::::s</text>
<text x="1268" y="180">ssssss</text>
<text x="1376" y="180">t:::::t</text>
<text x="1516" y="180">h::::::h</text>
<text x="1628" y="180">h::::::hu::::u</text>
<text x="1740" y="180">u::::u</text>
<text x="1812" y="180">i::::i</text>
<text x="1924" y="180">z::::::z</text>
<text x="2060" y="180">e:::::::eeeee::::::e</text>
<text x="2220" y="180">n:::::nnnn:::::n</text>
<text x="28" y="196">B::::B</text>
<text x="196" y="196">B:::::Be:::::::::::::::::e</text>
<text x="344" y="196">r:::::r</text>
<text x="440" y="196">rrrrrrr</text>
<text x="508" y="196">n::::n</text>
<text x="696" y="196">n::::n i::::i e:::::::::::::::::e</text>
<text x="904" y="196">O:::::O</text>
<text x="1020" y="196">O:::::Oo::::</text>
<text x="1140" y="196">::::</text>
<text x="1220" y="196">s::::::s</text>
<text x="1376" y="196">t:::::t</text>
<text x="1512" y="196">h:::::h</text>
<text x="1632" y="196">h:::::hu::::u</text>
<text x="1740" y="196">u::::u</text>
<text x="1812" y="196">i::::i</text>
<text x="1916" y="196">z::::::z</text>
<text x="2056" y="196">e:::::::::::::::::e</text>
<text x="2180" y="196">n::::n</text>
<text x="2260" y="196">n::::n</text>
<text x="28" y="212">B::::B</text>
<text x="192" y="212">B:::::Be::::::eeeeeeeeeee</text>
<text x="344" y="212">r:::::r</text>
<text x="508" y="212">n::::n</text>
<text x="692" y="212">n::::n i::::i e::::::eeeeeeeeeee</text>
<text x="904" y="212">O:::::O</text>
<text x="1020" y="212">O:::::Oo::::</text>
<text x="1140" y="212">::::</text>
<text x="1244" y="212">s::::::s</text>
<text x="1376" y="212">t:::::t</text>
<text x="1512" y="212">h:::::h</text>
<text x="1632" y="212">h:::::hu::::u</text>
<text x="1740" y="212">u::::u</text>
<text x="1812" y="212">i::::i</text>
<text x="1908" y="212">z::::::z</text>
<text x="2052" y="212">e::::::eeeeeeeeeee</text>
<text x="2180" y="212">n::::n</text>
<text x="2260" y="212">n::::n</text>
<text x="28" y="228">B::::B</text>
<text x="156" y="228">B:::::Be:::::::e</text>
<text x="344" y="228">r:::::r</text>
<text x="508" y="228">n::::n</text>
<text x="656" y="228">n::::n i::::i e:::::::e</text>
<text x="908" y="228">O::::::O</text>
<text x="1016" y="228">O::::::Oo::::</text>
<text x="1168" y="228">::::ossssss</text>
<text x="1264" y="228">s:::::s</text>
<text x="1376" y="228">t:::::t</text>
<text x="1488" y="228">tttttth:::::h</text>
<text x="1672" y="228">h:::::hu:::::uuuu:::::u</text>
<text x="1812" y="228">i::::i</text>
<text x="1900" y="228">z::::::z</text>
<text x="2016" y="228">e:::::::e</text>
<text x="2180" y="228">n::::n</text>
<text x="2260" y="228">n::::n</text>
<text x="124" y="244">BB:::::BBBBBB::::::Be::::::::e</text>
<text x="360" y="244">r:::::r</text>
<text x="524" y="244">n::::n</text>
<text x="676" y="244">n::::ni::::::ie::::::::e</text>
<text x="1004" y="244">O:::::::OOO:::::::Oo:::::ooo</text>
<text x="1224" y="244">:::::os:::::ssss::::::s</text>
<text x="1460" y="244">t::::::tttt:::::th:::::h</text>
<text x="1728" y="244">h:::::hu:::::::::::::::uui::::::i</text>
<text x="1976" y="244">z::::::zzzzzzzze::::::::e</text>
<text x="2196" y="244">n::::n</text>
<text x="2276" y="244">n::::n</text>
<text x="80" y="260">B:::::::::::::::::B</text>
<text x="240" y="260">e::::::::eeeeeeee</text>
<text x="360" y="260">r:::::r</text>
<text x="524" y="260">n::::n</text>
<text x="708" y="260">n::::ni::::::i e::::::::eeeeeeee</text>
<text x="968" y="260">OO:::::::::::::OO</text>
<text x="1180" y="260">:::::::::::::::os::::::::::::::s</text>
<text x="1460" y="260">tt::::::::::::::th:::::h</text>
<text x="1868" y="260">h:::::h u:::::::::::::::ui::::::i z::::::::::::::z e::::::::eeeeeeee</text>
<text x="2196" y="260">n::::n</text>
<text x="2276" y="260">n::::n</text>
<text x="76" y="276">B::::::::::::::::B</text>
<text x="244" y="276">ee:::::::::::::e</text>
<text x="360" y="276">r:::::r</text>
<text x="524" y="276">n::::n</text>
<text x="636" y="276">n::::ni::::::i</text>
<text x="772" y="276">ee:::::::::::::e</text>
<text x="968" y="276">OO:::::::::OO</text>
<text x="1112" y="276">:::::::::::</text>
<text x="1244" y="276">s:::::::::::ss</text>
<text x="1468" y="276">tt:::::::::::tth:::::h</text>
<text x="1624" y="276">h:::::h</text>
<text x="1832" y="276">uu::::::::uu:::ui::::::iz:::::::::::::::z</text>
<text x="2076" y="276">ee:::::::::::::e</text>
<text x="2196" y="276">n::::n</text>
<text x="2276" y="276">n::::n</text>
<text x="72" y="292">BBBBBBBBBBBBBBBBB</text>
<text x="252" y="292">eeeeeeeeeeeeee</text>
<text x="360" y="292">rrrrrrr</text>
<text x="524" y="292">nnnnnn</text>
<text x="636" y="292">nnnnnniiiiiiii</text>
<text x="780" y="292">eeeeeeeeeeeeee</text>
<text x="968" y="292">OOOOOOOOO</text>
<text x="1136" y="292">o</text>
<text x="1240" y="292">sssssssssss</text>
<text x="1440" y="292">ttttttttttt</text>
<text x="1528" y="292">hhhhhhh</text>
<text x="1624" y="292">hhhhhhh</text>
<text x="1716" y="292">uuuuuuuu</text>
<text x="1880" y="292">uuuuiiiiiiiizzzzzzzzzzzzzzzzz</text>
<text x="2084" y="292">eeeeeeeeeeeeee</text>
<text x="2196" y="292">nnnnnn</text>
<text x="2276" y="292">nnnnnn</text>
</g>
</svg>
