<svg id="Layer_1" data-name="Layer 1" xmlns="http://www.w3.org/2000/svg" viewBox="0 0 16 16"><defs><style>.cls-1{isolation:isolate;font-size:4.21px;font-family:CourierNewPSMT, Courier New;}</style></defs><rect x="26.69" y="7.68" width="2.68" height="5.18"/><rect x="21.34" y="7.68" width="2.68" height="5.18"/><rect x="29.37" y="23.22" width="2.68" height="5.18"/><rect x="29.37" y="12.86" width="2.68" height="5.18"/><rect x="26.69" y="28.4" width="2.68" height="5.18"/><rect x="26.69" y="23.22" width="2.68" height="5.18"/><rect x="26.69" y="18.04" width="2.68" height="5.18"/><rect x="26.69" y="12.86" width="2.68" height="5.18"/><rect x="24.02" y="28.4" width="2.68" height="5.18"/><rect x="24.02" y="18.04" width="2.68" height="5.18"/><rect x="24.01" y="7.67" width="2.69" height="5.2"/><rect x="21.34" y="28.4" width="2.68" height="5.18"/><rect x="21.34" y="18.04" width="2.68" height="5.18"/><rect x="18.66" y="28.4" width="2.68" height="5.18"/><rect x="18.66" y="18.04" width="2.68" height="5.18"/><rect x="18.68" y="7.67" width="2.69" height="5.2"/><rect x="15.98" y="28.4" width="2.68" height="5.18"/><rect x="15.98" y="23.22" width="2.68" height="5.18"/><rect x="15.98" y="18.04" width="2.68" height="5.18"/><rect x="15.98" y="12.86" width="2.68" height="5.18"/><rect x="15.99" y="7.67" width="2.69" height="5.2"/><rect x="13.31" y="28.4" width="2.68" height="5.18"/><rect x="13.31" y="23.22" width="2.68" height="5.18"/><rect x="13.31" y="18.04" width="2.68" height="5.18"/><rect x="13.31" y="12.86" width="2.68" height="5.18"/><rect x="13.31" y="7.67" width="2.69" height="5.2"/><text class="cls-1" transform="translate(29.41 11.57) scale(1.03 1)">╗</text><text class="cls-1" transform="translate(18.76 16.75) scale(1.03 1)">╔══</text><text class="cls-1" transform="translate(32.08 16.75) scale(1.03 1)">╗</text><text class="cls-1" transform="translate(29.44 21.93) scale(1.03 1)">╔╝</text><text class="cls-1" transform="translate(18.76 27.11) scale(1.03 1)">╔══</text><text class="cls-1" transform="translate(32.08 27.11) scale(1.03 1)">╗</text><text class="cls-1" transform="translate(29.44 32.29) scale(1.03 1)">╔╝</text><text class="cls-1" transform="translate(13.54 37.47) scale(1.03 1)">╚═════╝</text></svg>